<svg xmlns="http://www.w3.org/2000/svg" version="1.1" xmlns:xlink="http://www.w3.org/1999/xlink" xmlns:svgjs="http://svgjs.dev/svgjs" width="300" height="200" viewBox="0 0 300 200"><g transform="matrix(1,0,0,1,0,0)"><svg viewBox="0 0 384 360" data-background-color="#fbeaab" preserveAspectRatio="xMidYMid meet" height="200" width="300" xmlns="http://www.w3.org/2000/svg" xmlns:xlink="http://www.w3.org/1999/xlink"><g id="tight-bounds" transform="matrix(1,0,0,1,0,0)"><svg viewBox="0 0 384 360" height="360" width="384"><g><svg></svg></g><g><svg viewBox="0 0 384 360" height="360" width="384"><g><path xmlns="http://www.w3.org/2000/svg" d="M362.354 145.441v-42.24c0-21.12-19.163-38.402-42.587-38.402h-93.208c-15.198 0-28.337-8.831-34.559-21.646-6.222 12.81-19.36 21.646-34.559 21.646h-93.208c-23.424 0-42.587 17.282-42.587 38.402v42.24c0 15.198-8.831 28.337-21.646 34.559 12.81 6.222 21.646 19.36 21.646 34.559v42.24c0 21.12 19.163 38.402 42.587 38.402h93.208c15.198 0 28.337 8.831 34.559 21.646 6.222-12.81 19.36-21.646 34.559-21.646h93.208c23.424 0 42.587-17.282 42.587-38.402v-42.24c0-15.198 8.831-28.337 21.646-34.559-12.81-6.222-21.646-19.36-21.646-34.559z" fill="#454545" fill-rule="nonzero" stroke="none" stroke-width="1" stroke-linecap="butt" stroke-linejoin="miter" stroke-miterlimit="10" stroke-dasharray="" stroke-dashoffset="0" font-family="none" font-weight="none" font-size="none" text-anchor="none" style="mix-blend-mode: normal" data-fill-palette-color="tertiary"></path></g><g transform="matrix(1,0,0,1,76.80000000000001,161.24075939899078)"><svg viewBox="0 0 230.39999999999998 37.51848120201847" height="37.51848120201847" width="230.39999999999998"><g><svg viewBox="0 0 298.37797193064375 48.58805699208443" height="37.51848120201847" width="230.39999999999998"><g transform="matrix(1,0,0,1,67.97797193064375,6.715136675461743)"><svg viewBox="0 0 230.4 35.15778364116095" height="35.15778364116095" width="230.4"><g id="textblocktransform"><svg viewBox="0 0 230.4 35.15778364116095" height="35.15778364116095" width="230.4" id="textblock"><g><svg viewBox="0 0 230.4 35.15778364116095" height="35.15778364116095" width="230.4"><g transform="matrix(1,0,0,1,0,0)"><svg width="230.4" viewBox="2.5 -34.29999923706055 227.38999938964844 34.70000076293945" height="35.15778364116095" data-palette-color="#fbeaab"><path d="M11.25-13.05L10.2 0 2.5 0 5.4-33.7 13.85-33.7 18.55-21.5Q19.75-18.45 20.6-15.9 21.45-13.35 21.7-12.3L21.7-12.3 21.95-11.3Q22.75-14.6 25.45-21.5L25.45-21.5 30.2-33.7 38.65-33.7 42.15 0 34.45 0 33.2-13.05 32.55-22.9Q31.25-19.15 28.95-13.05L28.95-13.05 24.2-0.35 19.65-0.35 14.95-13.05Q13.8-16.15 13-18.6 12.2-21.05 11.95-22L11.95-22 11.7-22.9Q11.7-19.35 11.25-13.05L11.25-13.05ZM58.1-14.3L58.1-14.3 57.75-13.1 65.85-13.1 65.5-14.3Q64.05-19.2 63.12-22.65 62.2-26.1 62-27.1L62-27.1 61.8-28.1Q61.4-25.35 58.1-14.3ZM55.9-6.9L53.85 0 45.8 0 57.05-33.7 66.75-33.7 78 0 69.75 0 67.7-6.9 55.9-6.9ZM90.1-13.95L90.1 0 82.4 0 82.4-33.7 90.85-33.7 98.7-19.75Q100.35-16.8 101.57-14.23 102.8-11.65 103.15-10.6L103.15-10.6 103.55-9.5Q103.05-13.2 103.05-19.75L103.05-19.75 103.05-33.7 110.75-33.7 110.75 0 102.3 0 94.25-13.95Q92.65-16.65 91.42-19.28 90.2-21.9 89.75-23.15L89.75-23.15 89.35-24.4Q90.1-19.9 90.1-13.95L90.1-13.95ZM146.29-20.1L146.29-3.1Q141.49 0.4 134.19 0.4L134.19 0.4Q126.09 0.4 121.04-4.25 115.99-8.9 115.99-16.9L115.99-16.9Q115.99-24.8 121.27-29.55 126.54-34.3 134.64-34.3L134.64-34.3Q140.34-34.3 144.49-32.2L144.49-32.2 144.49-24.5Q139.69-27.25 134.64-27.25L134.64-27.25Q129.89-27.25 127.09-24.43 124.29-21.6 124.29-16.9L124.29-16.9Q124.29-12.15 127.04-9.35 129.79-6.55 134.54-6.55L134.54-6.55Q136.69-6.55 138.79-7.2L138.79-7.2 138.79-13.55 133.34-13.55 133.34-20.1 146.29-20.1ZM184.09-16.95L184.09-16.95Q184.09-9.2 179.62-4.42 175.14 0.35 167.69 0.35L167.69 0.35Q160.19 0.35 155.74-4.4 151.29-9.15 151.29-16.95L151.29-16.95Q151.29-24.7 155.77-29.48 160.24-34.25 167.69-34.25L167.69-34.25Q175.19-34.25 179.64-29.5 184.09-24.75 184.09-16.95ZM161.74-24.48Q159.54-21.7 159.54-16.95 159.54-12.2 161.74-9.43 163.94-6.65 167.69-6.65 171.44-6.65 173.64-9.43 175.84-12.2 175.84-16.95 175.84-21.7 173.64-24.48 171.44-27.25 167.69-27.25 163.94-27.25 161.74-24.48ZM202.69-33.65L202.69-10.2Q202.69-5.35 200.11-2.65 197.54 0.05 192.94 0.05L192.94 0.05Q189.49 0.05 187.59-0.95L187.59-0.95 187.59-7.75Q189.44-6.6 191.44-6.6L191.44-6.6Q194.99-6.6 194.99-10.4L194.99-10.4 194.99-33.65 202.69-33.65ZM229.89-9.8L229.89-9.8Q229.89-5.25 226.54-2.43 223.19 0.4 217.64 0.4L217.64 0.4Q211.69 0.4 207.94-1.7L207.94-1.7 207.94-9.45Q212.49-6.15 217.64-6.15L217.64-6.15Q219.39-6.15 220.54-7.08 221.69-8 221.69-9.5L221.69-9.5Q221.69-10 221.54-10.45 221.39-10.9 220.99-11.3 220.59-11.7 220.21-11.98 219.84-12.25 219.11-12.63 218.39-13 217.89-13.25 217.39-13.5 216.41-13.95 215.44-14.4 214.84-14.65L214.84-14.65Q211.59-16.15 209.61-18.35 207.64-20.55 207.64-24.2L207.64-24.2Q207.64-28.55 210.84-31.23 214.04-33.9 219.69-33.9L219.69-33.9Q224.74-33.9 228.39-32.2L228.39-32.2 228.39-25Q224.34-27.35 219.99-27.35L219.99-27.35Q218.04-27.35 217.01-26.55 215.99-25.75 215.99-24.5 215.99-23.25 217.24-22.28 218.49-21.3 220.99-20.2L220.99-20.2Q222.54-19.5 223.56-18.98 224.59-18.45 225.91-17.53 227.24-16.6 228.01-15.58 228.79-14.55 229.34-13.05 229.89-11.55 229.89-9.8Z" opacity="1" transform="matrix(1,0,0,1,0,0)" fill="#fbeaab" class="wordmark-text-0" data-fill-palette-color="quaternary" id="text-0"></path></svg></g></svg></g></svg></g></svg></g><g><svg viewBox="0 0 59.67806299977303 48.58805699208443" height="48.58805699208443" width="59.67806299977303"><g><svg xmlns="http://www.w3.org/2000/svg" xmlns:xlink="http://www.w3.org/1999/xlink" version="1.1" x="0" y="0" viewBox="6 10 89.58352661132812 72.93617248535156" enable-background="new 0 0 100 100" xml:space="preserve" height="48.58805699208443" width="59.67806299977303" class="icon-icon-0" data-fill-palette-color="quaternary" id="icon-0"><path d="M43 18c0.434-1.126 8.037 1.337 8.545 1.532 8.637 3.315 14.986 10.754 19.966 18.26 3.349 5.048 5.269 10.881 8.567 15.954 1.727 2.654 3.768 5.035 6.383 6.852 2.766 1.921 6.186 2.832 8.09 5.826C97.622 71.254 93.269 75.06 89 77c0 0-24 14-58-1 0 0-18-8-22-24 0 0 12-8 10-21C19 31 38 31 43 18z" fill="#fbeaab" data-fill-palette-color="quaternary"></path><path d="M17 29c0 0 3 12-8 20C9 49 15 41 17 29z" fill="#fbeaab" data-fill-palette-color="quaternary"></path><path d="M16 29c0 0-5 15.25-10 23C6 52 6 36 16 29z" fill="#fbeaab" data-fill-palette-color="quaternary"></path><path d="M17 28c0 0 16 4 28-15C45 13 34 24.375 17 28z" fill="#fbeaab" data-fill-palette-color="quaternary"></path><path d="M16 27c0.011-0.002 18.004-4.004 31-17-1.894 0.688-3.845 1.244-5.807 1.697-1.897 0.438-3.825 0.875-5.786 0.796-3.116-0.126-5.205-0.525-8.137 0.772-3.242 1.435-5.534 3.541-7.643 6.391-0.777 1.051-1.462 2.159-2.035 3.334C17.361 23.468 16.326 26.928 16 27z" fill="#fbeaab" data-fill-palette-color="quaternary"></path><rect x="9" y="24" transform="matrix(0.8337 0.5522 -0.5522 0.8337 16.2709 -2.0266)" width="5" height="4" fill="#fbeaab" data-fill-palette-color="quaternary"></rect></svg></g></svg></g></svg></g></svg></g></svg></g><defs></defs></svg><rect width="384" height="360" fill="none" stroke="none" visibility="hidden"></rect></g></svg></g></svg>